<?xml version="1.0"?>
<svg xmlns="http://www.w3.org/2000/svg" xmlns:xlink="http://www.w3.org/1999/xlink" xmlns:svgjs="http://svgjs.com/svgjs" version="1.1" width="512" height="512" x="0" y="0" viewBox="0 0 511.996 511.996" style="enable-background:new 0 0 512 512" xml:space="preserve" class=""><g><g xmlns="http://www.w3.org/2000/svg"><path d="m488.965 226.136h15.531c4.142 0 7.5-3.358 7.5-7.5v-31.062c0-4.142-3.358-7.5-7.5-7.5h-105.056c-4.142 0-7.5 3.358-7.5 7.5s3.358 7.5 7.5 7.5h50.586l9.551 33.429 36.126 126.442-70.941 42.565h-373.276l36.866-64.516c48.612-85.072 139.678-137.92 237.661-137.92h40.741c4.142 0 7.5-3.358 7.5-7.5s-3.358-7.5-7.5-7.5h-40.741c-44.333 0-87.324 10.257-126.015 29.055-12.998-10.689-30.744-13.573-46.627-7.219-17.691 7.076-29.123 23.96-29.123 43.014v17.42c-18.937 18.469-35.469 39.668-48.92 63.207l-41.268 72.22c-19.15 2.236-34.06 18.56-34.06 38.301 0 4.142 3.358 7.5 7.5 7.5h76.844c4.142 0 7.5-3.358 7.5-7.5s-3.358-7.5-7.5-7.5h-68.12c3.139-9.327 11.967-16.062 22.338-16.062h380.778v8.031c0 4.428-3.603 8.031-8.031 8.031h-295.091c-4.142 0-7.5 3.358-7.5 7.5s3.358 7.5 7.5 7.5h295.091c12.7 0 23.031-10.332 23.031-23.031v-11.284l69.409-41.646c5.616-3.369 8.282-10.12 6.483-16.417l-33.616-117.659c4.463-6.97 11.566-7.376 12.349-7.399zm-349.716 18.788c0-12.885 7.73-24.302 19.693-29.087 8.688-3.475 18.047-2.814 25.824 1.146-16.163 9.065-31.398 19.65-45.517 31.625zm326.378-49.851h31.369v16.062h-8.031c-.52 0-9.034.096-17.07 5.876z" fill="#ffffff" data-original="#000000" style=""/><path d="m216.979 283.554c2.995-2.861 3.103-7.609.241-10.604-2.862-2.996-7.609-3.104-10.604-.241-8.795 8.404-16.961 17.606-24.27 27.351-7.194 9.592-8.333 22.213-2.97 32.938s16.142 17.387 28.132 17.387h207.158c4.496 0 8.662-2.033 11.429-5.577s3.729-8.078 2.638-12.44l-27.561-110.248c-1.616-6.467-7.401-10.984-14.067-10.984-13.932 1.622-81.312-9.818-152.427 38.822-3.419 2.338-4.295 7.005-1.957 10.424s7.006 4.296 10.424 1.957c66.613-45.56 130-34.644 143.569-36.203l27.312 109.249h-58.075c-3.5-17.686-19.132-31.062-37.829-31.062h-31.062c-18.698 0-34.329 13.377-37.829 31.062h-41.722c-6.367 0-11.869-3.4-14.716-9.095-2.848-5.695-2.267-12.136 1.554-17.229 6.816-9.089 14.43-17.67 22.632-25.507zm47.743 51.831c3.139-9.327 11.967-16.062 22.338-16.062h31.062c10.372 0 19.199 6.736 22.338 16.062z" fill="#ffffff" data-original="#000000" style=""/><path d="m100.687 366.447c-4.142 0-7.5 3.358-7.5 7.5s3.358 7.5 7.5 7.5h46.593c4.142 0 7.5-3.358 7.5-7.5s-3.358-7.5-7.5-7.5z" fill="#ffffff" data-original="#000000" style=""/><path d="m67.629 185.155c2.929-2.929 2.929-7.678 0-10.606-2.929-2.929-7.678-2.929-10.606 0-8.299 8.297-21.711 8.301-30.014 0-4.009-4.009-6.216-9.338-6.216-15.007 0-9.704 6.467-17.752 15.131-20.335 2.307-.688 4.144-2.442 4.938-4.714.794-2.273.448-4.789-.929-6.763-5.88-8.432-4.861-19.838 2.423-27.123 6.799-6.799 17.347-8.182 25.647-3.363 1.746 1.013 3.824 1.279 5.767.742 1.944-.539 3.589-1.837 4.563-3.603 6.832-12.371 23.646-14.711 33.599-4.758 8.28 8.281 8.32 21.695 0 30.014-2.929 2.929-2.929 7.677 0 10.606 2.929 2.93 7.678 2.928 10.606 0 14.305-14.305 14.015-37.21 0-51.227-14.123-14.123-37.104-14.123-51.227 0-.75.75-1.466 1.531-2.146 2.34-12.889-4.44-27.495-1.281-37.418 8.642-10.277 10.277-13.243 25.371-8.286 38.43-10.724 6.404-17.671 17.993-17.671 31.112 0 9.675 3.768 18.771 10.61 25.613 13.994 13.992 36.903 14.326 51.229 0z" fill="#ffffff" data-original="#000000" style=""/><path d="m84.479 169.057c-2.929 2.929-2.929 7.678 0 10.606l21.964 21.964c2.929 2.929 7.678 2.929 10.606 0 2.929-2.929 2.929-7.678 0-10.606l-21.964-21.964c-2.929-2.929-7.678-2.929-10.606 0z" fill="#ffffff" data-original="#000000" style=""/><path d="m106.443 147.093c-2.929 2.929-2.929 7.678 0 10.606l21.964 21.964c2.929 2.929 7.678 2.929 10.606 0 2.929-2.929 2.929-7.678 0-10.606l-21.964-21.964c-2.928-2.929-7.677-2.929-10.606 0z" fill="#ffffff" data-original="#000000" style=""/></g></g></svg>
